
<svg width="180" height="50" viewBox="0 0 180 50" fill="none" xmlns="http://www.w3.org/2000/svg">
  <path d="M7.552 37H1.936V12.024H7.552V22.472H18.048V12.024H23.664V37H18.048V27.224H7.552V37Z" fill="#FAFAFA"/>
  <path d="M33.6562 37.384C31.5762 37.384 29.8802 36.904 28.5682 35.944C27.2562 34.968 26.3162 33.608 25.7482 31.864C25.1962 30.104 24.9202 28.096 24.9202 25.84C24.9202 23.536 25.2042 21.504 25.7722 19.744C26.3402 17.984 27.2882 16.624 28.6162 15.664C29.9442 14.688 31.6402 14.2 33.7042 14.2C35.3362 14.2 36.7122 14.488 37.8322 15.064C38.9522 15.624 39.8122 16.448 40.4122 17.536C41.0282 18.608 41.3842 19.92 41.4802 21.472H36.1922C36.0962 20.496 35.8122 19.744 35.3402 19.216C34.8682 18.672 34.2522 18.4 33.4922 18.4C32.5842 18.4 31.8402 18.664 31.2602 19.192C30.6962 19.704 30.2802 20.48 30.0122 21.52C29.7602 22.544 29.6342 23.8 29.6342 25.288V25.84C29.6342 27.36 29.7522 28.648 29.9882 29.704C30.2402 30.76 30.6562 31.552 31.2362 32.08C31.8162 32.608 32.5842 32.872 33.5402 32.872C34.0442 32.872 34.4922 32.768 34.8842 32.56C35.2922 32.352 35.6202 32.032 35.8682 31.6C36.1322 31.152 36.2902 30.584 36.3382 29.896H41.6502C41.5542 31.432 41.1682 32.752 40.4922 33.856C39.8322 34.944 38.9162 35.776 37.7442 36.352C36.5722 37.04 35.2202 37.384 33.6562 37.384Z" fill="#FAFAFA"/>
  <path d="M50.8342 37.384C48.7382 37.384 47.0342 36.904 45.7222 35.944C44.4102 34.968 43.4702 33.608 42.9022 31.864C42.3502 30.104 42.0742 28.096 42.0742 25.84C42.0742 23.536 42.3582 21.504 42.9262 19.744C43.4942 17.984 44.4422 16.624 45.7702 15.664C47.0982 14.688 48.7942 14.2 50.8582 14.2C52.4902 14.2 53.8662 14.488 54.9862 15.064C56.1062 15.624 56.9662 16.448 57.5662 17.536C58.1822 18.608 58.5382 19.92 58.6342 21.472H53.3462C53.2502 20.496 52.9662 19.744 52.4942 19.216C52.0222 18.672 51.4062 18.4 50.6462 18.4C49.7382 18.4 48.9942 18.664 48.4142 19.192C47.8502 19.704 47.4342 20.48 47.1662 21.52C46.9142 22.544 46.7882 23.8 46.7882 25.288V25.84C46.7882 27.36 46.9062 28.648 47.1422 29.704C47.3942 30.76 47.8102 31.552 48.3902 32.08C48.9702 32.608 49.7382 32.872 50.6942 32.872C51.1982 32.872 51.6462 32.768 52.0382 32.56C52.4462 32.352 52.7742 32.032 53.0222 31.6C53.2862 31.152 53.4442 30.584 53.4922 29.896H58.8042C58.7082 31.432 58.3222 32.752 57.6462 33.856C56.9862 34.944 56.0702 35.776 54.8982 36.352C53.7262 37.04 52.3742 37.384 50.8342 37.384Z" fill="#FAFAFA"/>
  <path d="M69.3204 37H63.7524V14.584H69.3204V37ZM63.4044 8.728C63.4044 7.864 63.7364 7.144 64.4004 6.568C65.0644 5.976 65.9404 5.68 67.0284 5.68C68.1004 5.68 68.9684 5.976 69.6324 6.568C70.3124 7.144 70.6524 7.864 70.6524 8.728C70.6524 9.608 70.3124 10.344 69.6324 10.936C68.9684 11.512 68.1004 11.8 67.0284 11.8C65.9404 11.8 65.0644 11.512 64.4004 10.936C63.7364 10.344 63.4044 9.608 63.4044 8.728Z" fill="#FAFAFA"/>
  <path d="M78.6885 37.336C77.1245 37.336 75.7325 37.048 74.5125 36.472C73.3085 35.896 72.3525 35.088 71.6445 34.048C70.9365 32.992 70.5645 31.752 70.5285 30.328H75.7925C75.8605 31.048 76.1365 31.64 76.6205 32.104C77.1045 32.552 77.7445 32.776 78.5405 32.776C79.1565 32.776 79.6285 32.656 79.9565 32.416C80.3005 32.176 80.4725 31.856 80.4725 31.456C80.4725 30.944 80.2405 30.576 79.7765 30.352C79.3125 30.112 78.5645 29.856 77.5325 29.584C76.3445 29.28 75.3605 28.968 74.5805 28.648C73.8005 28.312 73.1245 27.808 72.5525 27.136C71.9805 26.464 71.6925 25.56 71.6925 24.424C71.6925 23.432 71.9565 22.544 72.4845 21.76C73.0285 20.976 73.8005 20.36 74.8005 19.912C75.8165 19.464 77.0045 19.24 78.3645 19.24C80.3805 19.24 81.9525 19.704 83.0805 20.632C84.2245 21.56 84.8725 22.832 85.0245 24.448H80.1485C80.0685 23.744 79.8085 23.2 79.3685 22.816C78.9445 22.432 78.3725 22.24 77.6525 22.24C77.0845 22.24 76.6525 22.36 76.3565 22.6C76.0605 22.824 75.9125 23.128 75.9125 23.512C75.9125 24.024 76.1445 24.408 76.6085 24.664C77.0885 24.92 77.8285 25.168 78.8285 25.408C80.0485 25.728 81.0405 26.048 81.8045 26.368C82.5685 26.688 83.2365 27.184 83.8085 27.856C84.3965 28.512 84.6925 29.408 84.6925 30.544C84.6925 31.504 84.4365 32.368 83.9245 33.136C83.4125 33.904 82.6485 34.512 81.6325 34.96C80.6325 35.408 79.4525 35.632 78.0765 35.632C77.6365 35.632 77.1645 35.648 76.6605 35.68C76.1725 35.696 75.7205 35.728 75.3045 35.776V32.176C75.8245 32.16 76.2645 32.128 76.6245 32.08C76.9845 32.016 77.1325 31.904 77.0685 31.744C77.0045 31.584 76.7325 31.456 76.2525 31.36C75.7885 31.264 75.2285 31.144 74.5765 31L76.0725 28.456C76.8685 28.76 77.5245 28.992 78.0445 29.152C78.5645 29.296 79.1005 29.48 79.6525 29.704L78.6885 37.336Z" fill="#FAFAFA"/>
  <path d="M97.1608 37H91.5928V14.584H97.1608V37ZM91.2448 8.728C91.2448 7.864 91.5768 7.144 92.2408 6.568C92.9048 5.976 93.7808 5.68 94.8688 5.68C95.9408 5.68 96.8088 5.976 97.4728 6.568C98.1528 7.144 98.4928 7.864 98.4928 8.728C98.4928 9.608 98.1528 10.344 97.4728 10.936C96.8088 11.512 95.9408 11.8 94.8688 11.8C93.7808 11.8 92.9048 11.512 92.2408 10.936C91.5768 10.344 91.2448 9.608 91.2448 8.728Z" fill="#FAFAFA"/>
  <path d="M114.749 25.48C114.749 28.072 114.349 30.176 113.549 31.792C112.765 33.408 111.613 34.592 110.093 35.344C108.589 36.08 106.749 36.448 104.573 36.448C102.397 36.448 100.549 36.08 99.0291 35.344C97.5251 34.592 96.3811 33.408 95.5971 31.792C94.8131 30.176 94.4211 28.072 94.4211 25.48V14.584H99.9891V25.984C99.9891 27.264 100.133 28.344 100.421 29.224C100.725 30.088 101.197 30.736 101.837 31.168C102.493 31.6 103.357 31.816 104.429 31.816C105.485 31.816 106.333 31.6 106.973 31.168C107.629 30.736 108.101 30.088 108.389 29.224C108.677 28.344 108.821 27.264 108.821 25.984V14.584H114.749V25.48Z" fill="#FAFAFA"/>
  <path d="M125.287 37H117.575V14.584H125.239C127.783 14.584 129.863 15.096 131.479 16.12C133.095 17.128 134.271 18.576 135.007 20.464C135.759 22.336 136.135 24.544 136.135 27.08C136.135 29.648 135.759 31.88 135.007 33.768C134.271 35.64 133.087 37.08 131.455 38.088C129.839 39.096 127.767 39.6 125.239 39.6H117.575V37ZM123.143 32.248C124.487 32.248 125.591 31.984 126.455 31.456C127.319 30.912 127.951 30.112 128.351 29.056C128.767 27.984 128.975 26.648 128.975 25.048V23.128C128.975 21.512 128.767 20.176 128.351 19.12C127.951 18.048 127.319 17.248 126.455 16.72C125.591 16.176 124.487 15.904 123.143 15.904H122.935V32.248H123.143Z" fill="#FAFAFA"/>
  <path d="M143.94 37H138.372V14.584H151.524V19.024H143.94V23.464H150.204V27.904H143.94V37Z" fill="#FAFAFA"/>
  <path d="M178.108 20.656H168.628V37H163.012V12.024H178.108V20.656Z" fill="#D4B254"/>
</svg>
